:version 1.10
:name ASF
:units
  mass 1
  length 1
  angle deg
:documentation
  ASF file generated by Kaydara
:root
  axis xyz
  order  tx ty tz rx ry rz
  position 0 0 0
  orientation 0 0 0
:bonedata
  begin
    id 1
    name RightUpLegDummy
    direction -0.718183 -0.695806 0.00816078
    length 4.904
    axis 0 0 0 xyz
  end
  begin
    id 2
    name RightUpLeg
    direction -0.0736652 -0.994202 0.0783343
    length 17.4976
    axis -2.72909 -3.00389 -4.00133 xyz
    dof rx ry rz
  end
  begin
    id 3
    name RightLeg
    direction -0.0389037 -0.994596 -0.0962598
    length 16.5821
    axis 3.95836 -18.5909 -4.46993 xyz
    dof rx ry rz
  end
  begin
    id 4
    name RightFoot
    direction -0.311643 -0.412678 0.855906
    length 3.77069
    axis -1.99483 -18.8351 -3.27644 xyz
    dof rx ry rz
  end
  begin
    id 5
    name RightToes
    direction -0.317852 0.0389852 0.947339
    length 3.85082
    axis -2.00228 -18.1713 -3.25211 xyz
    dof rx ry rz
  end
  begin
    id 6
    name SpineDummy
    direction 8.3039e-015 1 4.44677e-016
    length 4.6813
    axis 0 0 0 xyz
  end
  begin
    id 7
    name Spine
    direction -0.000262373 0.999988 0.00493267
    length 10.1015
    axis -0.00246081 0.00062579 0.0150362 xyz
    dof rx ry rz
  end
  begin
    id 8
    name Spine1
    direction 0 0 0
    length 0
    axis -0.00349562 0.000650293 0.0196666 xyz
    dof rx ry rz
  end
  begin
    id 9
    name HEadDummy
    direction -0.000343232 0.999999 0.00123745
    length 3.43865
    axis -0.00349562 0.000650293 0.0196666 xyz
  end
  begin
    id 10
    name HEad
    direction -0.0461221 0.980933 0.188796
    length 5.12695
    axis -0.00351404 -7.04812 0.0199272 xyz
    dof rx ry rz
  end
  begin
    id 11
    name LeftShoulder1Dummy
    direction 0.998904 -0.0399089 -0.0244534
    length 3.5433
    axis -0.00349562 0.000650293 0.0196666 xyz
  end
  begin
    id 12
    name LeftShoulder1
    direction 0.99951 1.64443e-005 0.0312999
    length 4.05031
    axis -0.00349562 0.000650293 0.0196666 xyz
    dof rx ry rz
  end
  begin
    id 13
    name LeftArm
    direction 0.984791 0.0515299 0.165927
    length 12.9126
    axis -64.823 -10.7743 5.20463 xyz
    dof rx ry rz
  end
  begin
    id 14
    name LeftForeArm
    direction 0.984968 0.0534808 0.16425
    length 10.8596
    axis -30.0462 -7.70601 1.87451 xyz
    dof rx ry rz
  end
  begin
    id 15
    name LeftHand
    direction 0.975871 0.0289682 0.216418
    length 6.62295
    axis -20.1348 -6.98077 1.86072 xyz
    dof rx ry rz
  end
  begin
    id 16
    name RightShoulderDummy
    direction -0.998877 -0.0405946 -0.0244307
    length 3.5433
    axis -0.00349562 0.000650293 0.0196666 xyz
  end
  begin
    id 17
    name RightShoulder
    direction -0.998933 -0.0249743 -0.0388558
    length 4.05031
    axis -0.0205316 -4.02113 1.41395 xyz
    dof rx ry rz
  end
  begin
    id 18
    name RightArm
    direction -0.997559 0.068664 0.0127103
    length 12.9638
    axis -67.3882 1.84188 -6.15987 xyz
    dof rx ry rz
  end
  begin
    id 19
    name RightForeArm
    direction -0.991508 0.0912848 0.0926241
    length 10.8312
    axis -22.1975 3.41087 -4.28711 xyz
    dof rx ry rz
  end
  begin
    id 20
    name RightHand
    direction -0.989262 0.0600788 0.133232
    length 6.57864
    axis -12.2911 2.17515 -4.39675 xyz
    dof rx ry rz
  end
  begin
    id 21
    name LeftUpLegDummy
    direction 0.718183 -0.695806 0.00816078
    length 4.904
    axis 0 0 0 xyz
  end
  begin
    id 22
    name LeftUpLeg
    direction 0.0831398 -0.99469 0.0606531
    length 17.4976
    axis -1.71016 2.29552 4.63832 xyz
    dof rx ry rz
  end
  begin
    id 23
    name LeftLeg
    direction 0.0498442 -0.991778 -0.117862
    length 16.5821
    axis 5.13757 15.5727 5.13348 xyz
    dof rx ry rz
  end
  begin
    id 24
    name LeftFoot
    direction 0.269026 -0.433896 0.85986
    length 3.77069
    axis -0.576502 15.6961 4.10267 xyz
    dof rx ry rz
  end
  begin
    id 25
    name LeftToes
    direction 0.277311 0.0251143 0.960452
    length 3.85048
    axis -0.576502 15.6961 4.10267 xyz
    dof rx ry rz
  end
:hierarchy
  begin
    root RightUpLegDummy SpineDummy LeftUpLegDummy
    RightUpLegDummy RightUpLeg
    RightUpLeg RightLeg
    RightLeg RightFoot
    RightFoot RightToes
    SpineDummy Spine
    Spine Spine1
    Spine1 HEadDummy LeftShoulder1Dummy RightShoulderDummy
    HEadDummy HEad
    LeftShoulder1Dummy LeftShoulder1
    LeftShoulder1 LeftArm
    LeftArm LeftForeArm
    LeftForeArm LeftHand
    RightShoulderDummy RightShoulder
    RightShoulder RightArm
    RightArm RightForeArm
    RightForeArm RightHand
    LeftUpLegDummy LeftUpLeg
    LeftUpLeg LeftLeg
    LeftLeg LeftFoot
    LeftFoot LeftToes
  end

:SAMPLES-PER-SECOND 30
:FULLY-SPECIFIED
:DEGREES
171
root  -4.38282 19.0619 73.4166 -132.68 6.26643 -176.665
RightUpLeg  -53.3005 -7.20111 13.3251
RightLeg  118.575 22.3073 -11.2086
RightFoot  -41.6503 3.10116 11.6348
RightToes  -5.82073e-011 -3.18055e-015 -2.98177e-016
Spine  46.3813 1.65811 4.59393
Spine1  -14.8182 3.78622 -5.48672
HEad  -17.5308 0.272266 2.58278
LeftShoulder1  -3.88251e-019 9.70628e-020 -3.87848e-018
LeftArm  -5.31174 -21.2695 -75.1364
LeftForeArm  29.2259 -1.90445 -7.94639
LeftHand  -13.0092 -11.5362 77.5522
RightShoulder  7.58897 10.9765 34.8623
RightArm  6.9711 12.003 47.4643
RightForeArm  25.3104 13.1866 -4.22206
RightHand  -12.3775 10.5586 -76.254
LeftUpLeg  -51.8512 0.114444 1.97127
LeftLeg  116.309 -18.7799 10.1702
LeftFoot  -42.0894 -3.51249 -13.0821
LeftToes  -2.27483e-011 -5.53417e-011 9.36564e-012
172
root  -4.22649 19.1195 73.2704 -132.271 6.4057 -176.974
RightUpLeg  -52.9661 -7.37291 13.5532
RightLeg  117.464 22.3537 -11.727
RightFoot  -42.3158 3.20005 11.727
RightToes  -5.82073e-011 -3.18055e-015 -2.98177e-016
Spine  45.8968 2.10787 3.90011
Spine1  -14.1182 3.98916 -5.71055
HEad  -18.5858 -0.722725 2.26312
LeftShoulder1  -3.88251e-019 9.70628e-020 -3.87848e-018
LeftArm  -5.93976 -22.0702 -74.824
LeftForeArm  30.3032 -2.05334 -8.62062
LeftHand  -13.1184 -11.643 77.6612
RightShoulder  7.68391 10.9865 35.3102
RightArm  12.275 10.3996 45.6761
RightForeArm  17.7181 17.3397 -7.0936
RightHand  -11.9901 10.4831 -74.7366
LeftUpLeg  -52.2522 0.285501 1.93534
LeftLeg  115.687 -18.8836 10.5882
LeftFoot  -41.4103 -3.31753 -12.652
LeftToes  -2.27483e-011 -5.53417e-011 9.36564e-012
173
root  -4.10385 19.1516 73.1485 -131.344 5.88576 -177.61
RightUpLeg  -53.242 -8.13413 14.0754
RightLeg  116.389 22.4163 -12.2866
RightFoot  -43.1223 3.27032 11.6478
RightToes  -5.82073e-011 -3.18055e-015 -2.98177e-016
Spine  45.0805 1.87929 3.64314
Spine1  -14.1319 3.5453 -5.78009
HEad  -19.8008 -1.10766 1.64669
LeftShoulder1  -3.88251e-019 9.70628e-020 -3.87848e-018
LeftArm  -6.19606 -21.9333 -74.404
LeftForeArm  30.8871 -2.11857 -8.90225
LeftHand  -13.2386 -11.8205 77.5779
RightShoulder  7.88682 11.0154 36.2461
RightArm  20.3981 8.30157 43.6519
RightForeArm  5.43826 22.656 -12.2666
RightHand  -11.4656 10.3059 -72.8782
LeftUpLeg  -54.1213 -0.180597 1.92238
LeftLeg  115.637 -19.3482 11.4226
LeftFoot  -39.1345 -2.81546 -11.6583
LeftToes  -2.27483e-011 -5.53417e-011 9.36564e-012
174
root  -3.9963 19.1395 73.0191 -130.196 5.0233 -178.098
RightUpLeg  -53.7477 -8.88461 14.9764
RightLeg  115.423 22.4855 -12.8394
RightFoot  -43.7198 3.2779 11.4294
RightToes  -5.82073e-011 -3.18055e-015 -2.98177e-016
Spine  44.171 1.35648 3.69734
Spine1  -14.8312 2.83663 -5.76016
HEad  -20.4976 -0.9912 0.817657
LeftShoulder1  -3.88251e-019 9.70628e-020 -3.87848e-018
LeftArm  -5.93782 -21.0033 -74.1373
LeftForeArm  31.1098 -2.08529 -8.6948
LeftHand  -13.3318 -11.8813 77.7702
RightShoulder  8.03547 11.0384 36.9226
RightArm  20.6896 6.6111 42.1595
RightForeArm  0.257108 27.9176 -15.0529
RightHand  -11.083 10.1834 -71.446
LeftUpLeg  -56.8962 -0.888804 2.01188
LeftLeg  116.475 -20.4384 12.9045
LeftFoot  -34.8022 -1.99906 -9.87572
LeftToes  -2.27483e-011 -5.53417e-011 9.36564e-012
175
root  -3.88549 19.1087 72.8404 -129.503 4.38522 -178.13
RightUpLeg  -53.6397 -9.14027 15.8388
RightLeg  114.539 22.484 -13.256
RightFoot  -44.0444 3.22609 11.113
RightToes  -5.82073e-011 -3.18055e-015 -2.98177e-016
Spine  43.8137 1.42471 3.55871
Spine1  -15.9614 2.6526 -5.30711
HEad  -20.2925 -1.21916 -0.177875
LeftShoulder1  -3.88251e-019 9.70628e-020 -3.87848e-018
LeftArm  -6.42096 -20.0958 -74.0779
LeftForeArm  32.1399 -2.11064 -8.70421
LeftHand  -13.4252 -11.8302 78.3364
RightShoulder  7.98317 10.9979 36.7541
RightArm  19.7215 6.19761 41.3883
RightForeArm  -1.96279 30.6816 -16.4816
RightHand  -11.0182 10.2856 -70.7708
LeftUpLeg  -59.4852 -1.2186 1.91606
LeftLeg  118.233 -22.0844 14.6614
LeftFoot  -30.5675 -1.27351 -7.75797
LeftToes  -2.27483e-011 -5.53417e-011 9.36564e-012
176
root  -3.79298 19.0924 72.6135 -129.538 4.47362 -177.783
RightUpLeg  -52.6653 -8.79638 15.9736
RightLeg  113.874 22.2862 -13.2263
RightFoot  -44.1642 3.19994 10.9728
RightToes  -5.82073e-011 -3.18055e-015 -2.98177e-016
Spine  43.4669 1.50664 3.45864
Spine1  -15.3739 2.72899 -5.92101
HEad  -20.4993 -1.54034 -0.300063
LeftShoulder1  -3.88251e-019 9.70628e-020 -3.87848e-018
LeftArm  -6.03048 -20.1733 -73.7295
LeftForeArm  32.3456 -2.13332 -8.80071
LeftHand  -13.5187 -11.8193 78.7662
RightShoulder  7.61529 10.8868 35.1871
RightArm  16.9039 7.85546 42.8578
RightForeArm  -0.147631 30.7214 -16.5829
RightHand  -11.0271 10.4736 -70.1715
LeftUpLeg  -61.3056 -0.733382 1.08608
LeftLeg  120.832 -23.812 15.8174
LeftFoot  -29.642 -1.0406 -6.61073
LeftToes  -2.27483e-011 -5.53417e-011 9.36564e-012
177
root  -3.71834 19.0864 72.3638 -129.935 5.26913 -176.982
RightUpLeg  -51.2547 -7.76236 15.6278
RightLeg  113.373 21.9707 -12.891
RightFoot  -44.049 3.22835 11.1195
RightToes  -5.82073e-011 -3.18055e-015 -2.98177e-016
Spine  43.6848 2.02324 3.21511
Spine1  -14.8943 3.26927 -6.9715
HEad  -20.7723 -2.29028 0.0900485
LeftShoulder1  -3.88251e-019 9.70628e-020 -3.87848e-018
LeftArm  -5.53493 -19.9265 -73.4851
LeftForeArm  32.4211 -2.1744 -9.01333
LeftHand  -13.6666 -11.9286 79.0168
RightShoulder  7.33186 10.774 34.0113
RightArm  15.2757 11.5713 43.6133
RightForeArm  1.62649 29.9996 -16.2434
RightHand  -10.6814 10.4418 -68.5523
LeftUpLeg  -62.5076 0.710211 -0.132482
LeftLeg  124.3 -24.8827 15.4493
LeftFoot  -32.5693 -1.3644 -7.39849
LeftToes  -2.27483e-011 -5.53417e-011 9.36564e-012
